<svg id="Capa_1" data-name="Capa 1" xmlns="http://www.w3.org/2000/svg" viewBox="0 0 382.6 477"><defs><style>.cls-1{fill:red;}.cls-2{font-size:339.1px;fill:#fff;font-family:Exo2-Thin, Exo 2 Thin;}</style></defs><title>locate</title><path class="cls-1" d="M509.71,561.05c-105.4,0-191.2,85.8-191.2,191.2a188.19,188.19,0,0,0,3.4,35.9c.1.7.5,2.8,1.3,6.4a188.3,188.3,0,0,0,12.8,37.7c20.6,48.5,65.9,123,165.3,202.8a13.54,13.54,0,0,0,17,0c99.3-79.8,144.7-154.3,165.3-202.8a186.19,186.19,0,0,0,12.8-37.7c.8-3.6,1.2-5.7,1.3-6.4a196.63,196.63,0,0,0,3.4-35.9C700.91,646.85,615.11,561.05,509.71,561.05Z" transform="translate(-318.51 -561.05)"/><path d="M478.24,1040.05" transform="translate(-318.51 -561.05)"/><text class="cls-2" transform="translate(59.7 305.54) scale(1.6 1)">Э</text></svg>