<svg xmlns="http://www.w3.org/2000/svg" width="166" height="37" viewBox="0 0 166 37">
    <g fill="none" fill-rule="evenodd">
        <path d="M0-2h166v44.564H0z"/>
        <path fill="#D52045" d="M61.062 36.05c-.023-.027-2.862-3.567-2.862-3.567L48.72 20.42l-2.613-3.372c-.323-.363-.126-.52.042-.556 4.335-.872 6.538-3.038 6.538-6.412 0-3.769-2.634-5.683-7.828-5.683h-7.08l.007.123c.122 1.461.192 3.336.207 5.587l.015 6.128-.07 7.1c-.038 2.3-.086 3.955-.152 4.782l-.011.116h.118l2.982-.004h.122l-.018-.112c-.068-1.112-.095-6.419-.095-11.02 0-4.87.027-10.404.079-11.083a1.11 1.11 0 0 1 .034-.147c.009-.038.084-.053.126-.053l2.537-.09c3.992 0 6.02 1.603 6.02 4.759 0 3.214-2.127 4.884-6.501 5.093l-.146-.009h-.502s-.116.023-.169.153c-.064.137-.064.333.154.627 0 0 9.063 10.607 13.825 16.187l2.999 3.515h1.722M127.266 28.234h-3.204l.01-.116c.053-.82.11-2.441.15-4.7l.072-7.022V6.515l-4.337.051s-3.158.114-3.37.12h-.108V4.539l.105.004c.536.015 4.452.092 4.452.092l4.663.077c.118.004 12.056.484 12.577.544.148.01.308.208.308.457 0 .252-.114.452-.272.47l-7.814.198-3.464.098v9.918l.008 4.26.007 1.879c.014 2.202.08 4.086.205 5.583l.012.116M67.887 15.762l3.276.044 2.625.034-2.356-5.777c-.41-1.067-.415-.977-.55-.977-.099 0-.194.16-.243.296l-2.752 6.38zm14.334 12.483l-3.494-.011-.013-.07c-.312-.896-4.186-10.517-4.186-10.517l-4.432.102-3.108.126-1.775 4.441s-2.117 5.708-2.17 5.847l-.028.07h-2.304l.074-.148A931.923 931.923 0 0 0 71.383 4.152c.07-.124.15-.183.236-.183h.322c.12 0 .206.06.256.19l4.776 11.714c.478.015 10.926.345 11.432.397.15.015.363.137.363.453 0 .386-.267.472-.326.472l-10.762.378L82.16 28.1l.061.146zM15.421 31.39c-4.426 0-8.24-1.516-11.043-4.386-2.657-2.717-4.01-6.477-4.01-11.176 0-4.698 1.558-8.467 4.634-11.2C7.922 2.029 11.78.712 16.48.712c2.66 0 6.128.765 9.28 2.026l.099.045-.768 1.845-.102-.056c-1.335-.726-4.27-1.94-9.01-1.94-.42 0-.853.014-1.278.028C4.26 3.336 3.96 13.193 4.012 15.162c.689.015 4.638.134 4.663.134l7.399.132c.136.003 14.116.379 14.54.43.165.015.32.143.32.497 0 .29-.222.427-.273.427l-14.847.516-5.921.1-5.752.034c.522 6.962 4.779 9.915 6.073 10.65 1.978 1.081 5.637 1.356 5.79 1.375 3.807 0 7.261-.958 9.454-2.636l.107-.078.788 1.648-.071.052c-2.155 1.472-4.649 2.27-5.433 2.461-1.823.43-3.86.486-5.428.486M117.71 36.05a587.792 587.792 0 0 1-2.863-3.567l-9.48-12.062-2.614-3.372c-.333-.363-.125-.52.04-.556 4.343-.872 6.528-3.038 6.528-6.412 0-3.769-2.627-5.683-7.824-5.683H94.42l.005.123c.122 1.461.198 3.336.218 5.587l.005 6.128-.073 7.1c-.028 2.304-.079 3.959-.15 4.782l-.005.116h.11l2.99-.004h.112l-.007-.112c-.07-1.112-.094-6.419-.094-11.02 0-4.87.023-10.404.075-11.083h-.003c.008-.033.015-.085.035-.147.014-.038.08-.049.128-.049l2.537-.095c3.992 0 6.008 1.604 6.008 4.76 0 3.214-2.12 4.884-6.49 5.093h-.148l-.493-.009s-.12.023-.185.153c-.05.137-.05.336.164.627 0 0 9.067 10.607 13.827 16.187l2.994 3.515h1.73M144.68 15.784l3.277.056 2.629.029-2.355-5.784c-.412-1.06-.412-.972-.555-.972-.095 0-.198.153-.243.302l-2.753 6.369zm14.346 12.496l-3.496-.017-.023-.074c-.307-.89-4.187-10.516-4.187-10.516l-4.426.102-3.113.119-1.777 4.452c0-.008-2.111 5.708-2.16 5.847l-.031.07h-2.294l.057-.148a906.166 906.166 0 0 0 10.603-23.936c.076-.121.158-.188.238-.188h.333c.11 0 .195.07.247.19l4.775 11.722c.477.015 10.934.345 11.426.393.149.018.366.14.366.456 0 .382-.27.465-.315.465l-10.768.378 4.477 10.527.068.158z"/>
    </g>
</svg>
